<?xml version="1.0" standalone="no"?>
<!DOCTYPE svg PUBLIC "-//W3C//DTD SVG 20010904//EN"
 "http://www.w3.org/TR/2001/REC-SVG-20010904/DTD/svg10.dtd">
<svg version="1.0" xmlns="http://www.w3.org/2000/svg"
 width="135.000000pt" height="135.000000pt" viewBox="0 0 135.000000 135.000000"
 preserveAspectRatio="xMidYMid meet">
<metadata>
Created by potrace 1.14, written by Peter Selinger 2001-2017
</metadata>
<g transform="translate(0.000000,135.000000) scale(0.100000,-0.100000)"
fill="#000000" stroke="none">
<path d="M10 685 l0 -665 665 0 665 0 0 665 0 665 -665 0 -665 0 0 -665z m547
230 c54 -16 103 -49 103 -69 0 -7 -13 -22 -30 -34 l-29 -22 -47 25 c-55 29
-79 31 -134 9 -99 -40 -120 -172 -40 -249 24 -23 41 -30 87 -33 50 -3 63 0 97
23 l39 27 30 -30 c17 -18 27 -36 24 -45 -3 -8 -31 -27 -61 -42 -185 -90 -395
43 -373 237 12 95 70 168 159 199 65 23 109 24 175 4z m468 4 c24 -6 60 -25
80 -43 l37 -31 -30 -29 -30 -28 -56 27 c-70 34 -122 28 -174 -20 -32 -28 -36
-39 -40 -92 -5 -71 13 -114 61 -144 45 -28 136 -23 172 11 l25 24 33 -30 c17
-16 34 -30 36 -31 10 -6 -35 -44 -75 -64 -56 -27 -161 -29 -219 -5 -92 39
-144 120 -145 225 0 169 149 274 325 230z"/>
</g>
</svg>
